<svg version="1.1" id="Layer_1" xmlns="http://www.w3.org/2000/svg" xmlns:xlink="http://www.w3.org/1999/xlink" x="0px" y="0px"
	 viewBox="0 0 379.3 460.9" enable-background="new 0 0 379.3 460.9" xml:space="preserve" class="img-thumbnail img-responsive">
<g>
	<g>
		<path fill="#384099" stroke="#000000" stroke-miterlimit="10" d="M70.5,451.6H26.4c-6.6,0-12-5.4-12-12v-3.7c0-6.6,5.4-12,12-12
			h44.1c6.6,0,12,5.4,12,12v3.7C82.5,446.2,77.1,451.6,70.5,451.6z"/>
		<text transform="matrix(1 0 0 1 91.1565 442.2256)" font-family="'HelveticaNeue'" font-size="18">gene</text>
	</g>
	<g>
		<g>
			
				<line fill="none" stroke="#000000" stroke-width="5" stroke-miterlimit="10" stroke-dasharray="12" x1="153.1" y1="424.7" x2="194.7" y2="424.7"/>
			<text transform="matrix(1 0 0 1 211.2435 429.1883)" font-family="'HelveticaNeue'" font-size="18">synthetic lethal</text>
		</g>
		<g>
			<line fill="none" stroke="#000000" stroke-width="5" stroke-miterlimit="10" x1="153.1" y1="448.5" x2="194.7" y2="448.5"/>
			<text transform="matrix(1 0 0 1 211.2435 452.9984)" font-family="'HelveticaNeue'" font-size="18">physical interaction</text>
		</g>
	</g>
</g>
<g>
	<g>
		<g>
			<line fill="none" stroke="#000000" stroke-width="5" stroke-miterlimit="10" x1="113.3" y1="75.5" x2="117.7" y2="79.6"/>
			
				<line fill="none" stroke="#000000" stroke-width="5" stroke-miterlimit="10" stroke-dasharray="11.6911,11.6911" x1="126.3" y1="87.6" x2="259.3" y2="210.6"/>
			<line fill="none" stroke="#000000" stroke-width="5" stroke-miterlimit="10" x1="263.6" y1="214.5" x2="268" y2="218.6"/>
		</g>
	</g>
	<g>
		<g>
			<line fill="none" stroke="#000000" stroke-width="5" stroke-miterlimit="10" x1="113.3" y1="170.3" x2="119" y2="172.1"/>
			
				<line fill="none" stroke="#000000" stroke-width="5" stroke-miterlimit="10" stroke-dasharray="12.2734,12.2734" x1="130.7" y1="175.8" x2="265.3" y2="218.4"/>
			<line fill="none" stroke="#000000" stroke-width="5" stroke-miterlimit="10" x1="271.1" y1="220.3" x2="276.8" y2="222.1"/>
		</g>
	</g>
	<g>
		<g>
			<line fill="none" stroke="#000000" stroke-width="5" stroke-miterlimit="10" x1="113.3" y1="170.3" x2="117.3" y2="174.7"/>
			
				<line fill="none" stroke="#000000" stroke-width="5" stroke-miterlimit="10" stroke-dasharray="11.394,11.394" x1="125" y1="183.1" x2="259.6" y2="330.2"/>
			<line fill="none" stroke="#000000" stroke-width="5" stroke-miterlimit="10" x1="263.5" y1="334.4" x2="267.5" y2="338.9"/>
		</g>
	</g>
	<g>
		<line fill="none" stroke="#000000" stroke-width="5" stroke-miterlimit="10" x1="60" y1="102" x2="60" y2="154.2"/>
		<line fill="none" stroke="#000000" stroke-width="5" stroke-miterlimit="10" x1="60" y1="199.1" x2="60" y2="245.1"/>
		<line fill="none" stroke="#000000" stroke-width="5" stroke-miterlimit="10" x1="60" y1="296.1" x2="60" y2="337.6"/>
		<path fill="#384099" stroke="#000000" stroke-miterlimit="10" d="M101.3,102H18.8c-6.6,0-12-5.4-12-12V58.6c0-6.6,5.4-12,12-12
			h82.5c6.6,0,12,5.4,12,12V90C113.3,96.6,107.9,102,101.3,102z"/>
		<path fill="#384099" stroke="#000000" stroke-miterlimit="10" d="M101.3,199.1H18.8c-6.6,0-12-5.4-12-12v-31.4c0-6.6,5.4-12,12-12
			h82.5c6.6,0,12,5.4,12,12v31.4C113.3,193.7,107.9,199.1,101.3,199.1z"/>
		<path fill="#384099" stroke="#000000" stroke-miterlimit="10" d="M101.3,296.1H18.8c-6.6,0-12-5.4-12-12v-31.4c0-6.6,5.4-12,12-12
			h82.5c6.6,0,12,5.4,12,12v31.4C113.3,290.7,107.9,296.1,101.3,296.1z"/>
		<path fill="#384099" stroke="#000000" stroke-miterlimit="10" d="M101.3,393.1H18.8c-6.6,0-12-5.4-12-12v-31.4c0-6.6,5.4-12,12-12
			h82.5c6.6,0,12,5.4,12,12v31.4C113.3,387.7,107.9,393.1,101.3,393.1z"/>
	</g>
	<g>
		<line fill="none" stroke="#000000" stroke-width="5" stroke-miterlimit="10" x1="321.3" y1="132.2" x2="321.3" y2="307.5"/>
		<path fill="#384099" stroke="#000000" stroke-miterlimit="10" d="M362.5,132.2H280c-6.6,0-12-5.4-12-12V88.8c0-6.6,5.4-12,12-12
			h82.5c6.6,0,12,5.4,12,12v31.4C374.5,126.8,369.1,132.2,362.5,132.2z"/>
		<path fill="#384099" stroke="#000000" stroke-miterlimit="10" d="M362.5,247.6H280c-6.6,0-12-5.4-12-12v-31.4c0-6.6,5.4-12,12-12
			h82.5c6.6,0,12,5.4,12,12v31.4C374.5,242.2,369.1,247.6,362.5,247.6z"/>
		<path fill="#384099" stroke="#000000" stroke-miterlimit="10" d="M362.5,362.9H280c-6.6,0-12-5.4-12-12v-31.4c0-6.6,5.4-12,12-12
			h82.5c6.6,0,12,5.4,12,12v31.4C374.5,357.5,369.1,362.9,362.5,362.9z"/>
	</g>
	
		<line fill="none" stroke="#000000" stroke-width="5" stroke-miterlimit="10" stroke-dasharray="12" x1="113.3" y1="366.6" x2="268" y2="218.6"/>
	
		<line fill="none" stroke="#000000" stroke-width="5" stroke-miterlimit="10" stroke-dasharray="12" x1="113.3" y1="269.6" x2="267.5" y2="103.3"/>
	<text transform="matrix(1 0 0 1 48.0609 29.3474)" font-family="'HelveticaNeue'" font-size="36">U</text>
	<text transform="matrix(1 0 0 1 310.2783 29.3475)" font-family="'HelveticaNeue'" font-size="36">V</text>
	<text transform="matrix(1 0 0 1 28.4954 76.7664)" fill="#FFFFFF" font-family="'HelveticaNeue'" font-size="18">Gene A</text>
	<text transform="matrix(1 0 0 1 28.4956 175.2446)" fill="#FFFFFF" font-family="'HelveticaNeue'" font-size="18">Gene B</text>
	<text transform="matrix(1 0 0 1 28.4956 274.1577)" fill="#FFFFFF" font-family="'HelveticaNeue'" font-size="18">Gene C</text>
	<text transform="matrix(1 0 0 1 28.4953 373.0221)" fill="#FFFFFF" font-family="'HelveticaNeue'" font-size="18">Gene D</text>
	<text transform="matrix(1 0 0 1 286.7563 108.9403)" fill="#FFFFFF" font-family="'HelveticaNeue'" font-size="18">Gene E</text>
	<text transform="matrix(1 0 0 1 286.7563 225.6903)" fill="#FFFFFF" font-family="'HelveticaNeue'" font-size="18">Gene F</text>
	<text transform="matrix(1 0 0 1 293.2781 338.8699)" fill="#FFFFFF" font-family="'HelveticaNeue'" font-size="18">Gene G</text>
</g>
</svg>